<?xml version="1.0" standalone="no"?><svg xmlns="http://www.w3.org/2000/svg" viewBox="0 0 1440 320"><path fill="#5000ca" fill-opacity="1" d="M0,160L12,149.3C24,139,48,117,72,90.7C96,64,120,32,144,42.7C168,53,192,107,216,122.7C240,139,264,117,288,117.3C312,117,336,139,360,144C384,149,408,139,432,154.7C456,171,480,213,504,197.3C528,181,552,107,576,112C600,117,624,203,648,218.7C672,235,696,181,720,170.7C744,160,768,192,792,213.3C816,235,840,245,864,218.7C888,192,912,128,936,96C960,64,984,64,1008,74.7C1032,85,1056,107,1080,101.3C1104,96,1128,64,1152,74.7C1176,85,1200,139,1224,149.3C1248,160,1272,128,1296,106.7C1320,85,1344,75,1368,58.7C1392,43,1416,21,1428,10.7L1440,0L1440,320L1428,320C1416,320,1392,320,1368,320C1344,320,1320,320,1296,320C1272,320,1248,320,1224,320C1200,320,1176,320,1152,320C1128,320,1104,320,1080,320C1056,320,1032,320,1008,320C984,320,960,320,936,320C912,320,888,320,864,320C840,320,816,320,792,320C768,320,744,320,720,320C696,320,672,320,648,320C624,320,600,320,576,320C552,320,528,320,504,320C480,320,456,320,432,320C408,320,384,320,360,320C336,320,312,320,288,320C264,320,240,320,216,320C192,320,168,320,144,320C120,320,96,320,72,320C48,320,24,320,12,320L0,320Z"></path></svg>